# xmcd CD database file
#
# Track frame offsets:
#	150
#	17244
#	43912
#	56236
#	77997
#	97950
#	112824
#	121932
#	145451
#	158663
#	175250
#
# Disc length: 2497 seconds
#
# Revision: 0
# Processed by: cddbd v1.5.2PL0 Copyright (c) Steve Scherf et al.
# Submitted via: CDex 1.70beta2
#
DISCID=9109bf0b
DTITLE=Various Artist - Lyckliga Gatan and andra kända visor
DYEAR=2001
DGENRE=Schillingsviser
TTITLE0=Ann Charlotte Bengtsson - Lyckliga Gatan
TTITLE1=Tord Lundquist - Lilla Ester
TTITLE2=Ann Charlotte Bengtsson - Skön Cecilia
TTITLE3=Ann Charlotte Bengtsson - Alpens Ros
TTITLE4=Tord Lundquist - Lilla vackra Anna
TTITLE5=Ann Charlotte Bengtsson - I en sal på lasarettet
TTITLE6=Ann Charlotte Bengtsson and Tord Lundquist - ABCD-visa
TTITLE7=Ann Charlotte Bengtsson - Björkens visa
TTITLE8=Ann Charlotte Bengtsson and Tord Lundquist - Elvira Madigan
TTITLE9=Ann Charlotte Bengtsson - Titanics undergång
TTITLE10=Tord Lundquist - Adjö, farväl
EXTD=YEAR: 2001
EXTT0=
EXTT1=
EXTT2=
EXTT3=
EXTT4=
EXTT5=
EXTT6=
EXTT7=
EXTT8=
EXTT9=
EXTT10=
PLAYORDER=
